<svg width="20" height="20" viewBox="0 0 20 20" fill="none" xmlns="http://www.w3.org/2000/svg">
<g id="Group">
<path id="Vector" d="M16.6667 3.33332V13.3333H6.66666V3.33332H16.6667ZM16.6667 1.66666H6.66666C5.75 1.66666 5 2.41666 5 3.33332V13.3333C5 14.25 5.75 15 6.66666 15H16.6667C17.5833 15 18.3333 14.25 18.3333 13.3333V3.33332C18.3333 2.41666 17.5833 1.66666 16.6667 1.66666ZM10.3917 11.6667L7.5 8.74999L8.66666 7.57499L10.3917 9.30832L14.6667 4.99999L15.8333 6.17499L10.3917 11.6667ZM3.33333 4.99999H1.66666V16.6667C1.66666 17.5833 2.41666 18.3333 3.33333 18.3333H15V16.6667H3.33333V4.99999Z" fill="#7A40F2"/>
</g>
</svg>
